<?xml version="1.0" standalone="no"?>
<!DOCTYPE svg PUBLIC "-//W3C//DTD SVG 20010904//EN"
 "http://www.w3.org/TR/2001/REC-SVG-20010904/DTD/svg10.dtd">
<svg version="1.0" xmlns="http://www.w3.org/2000/svg"
 width="2068.000000pt" height="2068.000000pt" viewBox="0 0 2068.000000 2068.000000"
 preserveAspectRatio="xMidYMid meet">
<metadata>
Created by potrace 1.11, written by Peter Selinger 2001-2013
</metadata>
<g transform="translate(0.000000,2068.000000) scale(0.100000,-0.100000)"
fill="#000000" stroke="none">
<path d="M10060 20674 c-58 -2 -265 -8 -460 -14 -1849 -55 -3193 -197 -4320
-456 -1228 -282 -2178 -719 -2890 -1330 -148 -127 -457 -436 -584 -584 -903
-1052 -1422 -2605 -1651 -4940 -63 -650 -102 -1287 -136 -2255 -37 -1039 21
-2613 141 -3805 232 -2298 730 -3794 1621 -4865 108 -130 483 -506 624 -625
1147 -975 2872 -1498 5590 -1695 840 -61 2017 -102 2595 -91 2904 55 4824 336
6218 912 206 85 602 282 772 384 388 234 627 419 954 740 370 363 586 634 836
1050 102 170 299 566 384 772 576 1394 857 3314 912 6218 11 578 -30 1755 -91
2595 -197 2718 -720 4443 -1695 5590 -119 141 -495 516 -625 624 -323 269
-636 472 -1035 672 -1241 622 -2925 950 -5465 1064 -638 28 -1436 47 -1695 39z
m-5010 -7644 l0 -300 -1360 0 -1360 0 0 -740 0 -740 1195 0 1195 0 0 -290 0
-290 -1195 0 -1195 0 0 -1105 0 -1105 -330 0 -330 0 0 2435 0 2435 1690 0
1690 0 0 -300z m2265 -930 c213 -25 369 -70 550 -160 412 -205 688 -548 804
-1000 55 -215 66 -325 66 -640 -1 -306 -11 -411 -61 -638 -76 -342 -247 -679
-454 -895 -292 -306 -718 -453 -1255 -434 -238 8 -422 46 -596 123 -491 216
-808 674 -905 1309 -23 148 -26 604 -6 755 69 511 247 894 547 1179 256 242
517 355 930 404 68 8 296 6 380 -3z m3766 -5 c317 -37 597 -154 785 -328 207
-192 327 -473 388 -909 l5 -38 -295 0 -294 0 0 23 c0 32 -36 156 -72 249 -16
44 -57 120 -89 168 -109 162 -226 245 -414 292 -122 30 -383 32 -490 4 -255
-67 -437 -221 -568 -482 -202 -401 -245 -1090 -96 -1539 106 -321 282 -529
516 -610 238 -83 518 -69 732 36 144 71 285 227 372 414 42 90 96 245 105 306
l7 39 292 0 292 0 -4 -27 c-90 -582 -323 -952 -732 -1162 -415 -213 -1018
-229 -1417 -37 -151 72 -248 141 -365 256 -254 251 -419 577 -491 975 -21 117
-23 159 -23 430 0 193 5 332 13 390 73 506 224 838 511 1126 255 254 528 388
878 428 114 14 321 12 454 -4z m7119 -10 c434 -72 732 -267 909 -595 71 -132
121 -319 121 -451 l0 -39 -282 2 -283 3 -7 47 c-15 108 -80 251 -146 322 -125
135 -340 210 -632 222 -307 13 -520 -44 -651 -175 -36 -36 -70 -83 -87 -118
-24 -52 -26 -70 -27 -168 0 -101 2 -115 29 -173 20 -44 48 -81 95 -125 126
-119 248 -165 746 -286 756 -183 984 -274 1157 -460 156 -168 228 -424 199
-707 -25 -253 -121 -461 -300 -656 -261 -283 -676 -413 -1256 -395 -496 16
-814 127 -1031 360 -201 215 -317 488 -349 820 l-7 67 288 -2 288 -3 12 -87
c48 -328 222 -520 547 -603 194 -49 461 -57 641 -20 339 70 537 231 576 468
25 142 -8 261 -97 358 -98 105 -224 151 -853 309 -453 114 -625 167 -776 239
-268 128 -443 315 -499 536 -36 138 -29 365 16 527 89 321 359 593 710 716
100 35 249 69 364 82 116 13 472 4 585 -15z m-4740 -1309 c0 -821 4 -1261 11
-1313 39 -289 192 -482 435 -547 87 -24 247 -31 356 -16 210 28 340 91 478
230 171 171 255 373 307 735 14 93 17 268 20 1128 l4 1017 300 0 299 0 0
-1775 0 -1775 -287 0 -286 0 7 258 c4 153 4 253 -2 247 -5 -5 -31 -44 -58 -85
-93 -143 -285 -311 -449 -393 -77 -38 -215 -84 -312 -104 -68 -14 -135 -18
-293 -17 -180 0 -220 3 -325 26 -211 44 -364 120 -492 242 -156 147 -239 306
-296 566 -21 93 -21 117 -24 1453 l-4 1357 306 0 305 0 0 -1234z"/>
<path d="M6928 11589 c-179 -26 -346 -101 -460 -208 -187 -175 -315 -450 -385
-831 -14 -76 -18 -151 -18 -380 0 -271 2 -291 27 -411 52 -238 137 -440 250
-590 119 -158 276 -254 502 -306 112 -26 395 -23 508 5 180 45 294 108 405
226 78 82 119 147 173 274 127 294 183 577 183 927 0 771 -280 1207 -830 1290
-105 16 -263 18 -355 4z"/>
</g>
</svg>
